<svg xmlns="http://www.w3.org/2000/svg" viewBox="0 0 1536 1536">
  <rect width="100%" height="100%" fill="white" />
  <path d="M 844,1182 C 830,1185 828,1193 832,1200 838,1201 845,1196" fill="none" stroke="black" stroke-width="1" />
  <path d="M 1007,1179 998,1179 998,1182 1003,1179 1007,1181 999,1186 997,1204 996,1179 996,1204 999,1186 1008,1181" fill="none" stroke="black" stroke-width="1" />
  <path d="M 978,1179 971,1182 967,1179 968,1203 971,1185 979,1182" fill="none" stroke="black" stroke-width="1" />
  <path d="M 831,1180 825,1188 826,1198 832,1203 845,1200 846,1203 846,1200 840,1203 831,1202 826,1197 825,1188 833,1179 847,1179 848,1203 848,1179" fill="none" stroke="black" stroke-width="1" />
  <path d="M 637,1180 632,1187 633,1198 642,1204 652,1202 651,1198 647,1201 640,1200 635,1193 656,1191 653,1182 648,1179" fill="none" stroke="black" stroke-width="1" />
  <path d="M 1021,1179 1021,1203 1024,1202 1024,1185 1027,1182 1033,1181 1036,1184 1040,1204 1041,1184 1049,1181 1054,1188 1056,1204 1057,1191 1052,1179 1044,1178 1038,1182 1031,1178" fill="none" stroke="black" stroke-width="1" />
  <path d="M 931,1179 925,1187 926,1196 932,1203 943,1203 950,1195 949,1184 941,1178" fill="none" stroke="black" stroke-width="1" />
  <path d="M 672,1179 672,1203 672,1180 680,1178 690,1184 691,1202 688,1202 687,1184 679,1181 675,1184 674,1203 675,1185 679,1181 686,1183 688,1202 691,1203 690,1183 686,1179" fill="none" stroke="black" stroke-width="1" />
  <path d="M 600,1178 592,1185 593,1197 602,1202 613,1199 614,1201 606,1210 593,1207 598,1212 606,1213 616,1204 616,1180" fill="none" stroke="black" stroke-width="1" />
  <path d="M 868,1172 870,1179 878,1181 870,1184 872,1201 877,1201 871,1199 870,1184 878,1180 871,1179 870,1172 867,1173 868,1201 876,1204 868,1200" fill="none" stroke="black" stroke-width="1" />
  <path d="M 711,1171 707,1179 710,1178 712,1171 714,1178 720,1180 714,1182 714,1200 718,1201 718,1204 711,1200 710,1182 707,1181 710,1182 711,1201 718,1204 719,1202 714,1199 714,1183 720,1179 715,1178" fill="none" stroke="black" stroke-width="1" />
  <path d="M 501,1170 503,1204 504,1173" fill="none" stroke="black" stroke-width="1" />
  <path d="M 559,1169 544,1203 552,1194 568,1194 576,1204 567,1180" fill="none" stroke="black" stroke-width="1" />
  <path d="M 468,1169 464,1171 450,1204 458,1194 475,1194 480,1203 483,1203" fill="none" stroke="black" stroke-width="1" />
  <path d="M 807,1168 805,1203 808,1202" fill="none" stroke="black" stroke-width="1" />
  <path d="M 782,1170 764,1168 764,1204 768,1191 781,1190 786,1186 787,1176" fill="none" stroke="black" stroke-width="1" />
  <path d="M 910,1167 911,1169 906,1170 902,1176 903,1179 910,1180 902,1182 902,1202 902,1183 910,1181 902,1176 911,1168 904,1168 896,1179 899,1184 900,1203 899,1184 896,1180 905,1168" fill="none" stroke="black" stroke-width="1" />
  <path d="M 714,1040 714,1121 723,1121 724,1040" fill="none" stroke="black" stroke-width="1" />
  <path d="M 1001,1053 993,1072 993,1088 1000,1105 1009,1114 1024,1121 1040,1122 1053,1118 1067,1105 1068,1121 1079,1121 1078,1039 1069,1039 1067,1053 1055,1042 1044,1038 1018,1040" fill="none" stroke="black" stroke-width="1" />
  <path d="M 607,1039 606,1119 618,1119 618,1063 633,1049 649,1048 655,1051 665,1064 666,1121 675,1121 676,1067 668,1048 652,1038 634,1038 618,1049 616,1039" fill="none" stroke="black" stroke-width="1" />
  <path d="M 568,1040 547,1039 539,1043 533,1051 527,1044 514,1038 496,1039 486,1047 484,1039 475,1039 474,1121 485,1121 485,1064 488,1058 501,1048 512,1048 525,1058 528,1077 528,1121 538,1121 539,1060 550,1049 567,1049" fill="none" stroke="black" stroke-width="1" />
  <path d="M 798,1014 780,1022 765,1038 758,1058 760,1083 769,1101 784,1114 806,1121 826,1120 845,1111 852,1101 844,1097 831,1107 819,1111 794,1107 779,1095 770,1080 770,1054 777,1041 787,1031 802,1024 825,1025 844,1038 849,1038 853,1031 840,1020 825,1014" fill="none" stroke="black" stroke-width="1" />
  <path d="M 377,1013 360,1019 345,1032 336,1050 334,1074 341,1095 356,1112 373,1120 396,1121 413,1115 429,1101 438,1084 440,1060 433,1039 416,1021 399,1014" fill="none" stroke="black" stroke-width="1" />
  <path d="M 1127,1011 1126,1037 1108,1039 1109,1049 1126,1050 1126,1104 1131,1113 1141,1120 1163,1120 1167,1117 1165,1109 1147,1111 1137,1102 1136,1050 1166,1049 1168,1041 1138,1039 1136,1013" fill="none" stroke="black" stroke-width="1" />
  <path d="M 712,1012 712,1025 724,1025 725,1015 721,1011" fill="none" stroke="black" stroke-width="1" />
  <path d="M 886,1010 885,1121 895,1121 896,1066 907,1053 918,1048 933,1049 947,1061 950,1069 950,1119 961,1121 961,1072 955,1053 945,1043 925,1037 910,1040 895,1051 895,1012" fill="none" stroke="black" stroke-width="1" />
  <path d="M 812,910 807,913" fill="none" stroke="black" stroke-width="1" />
  <path d="M 822,907 824,909" fill="none" stroke="black" stroke-width="1" />
  <path d="M 797,898 802,899" fill="none" stroke="black" stroke-width="1" />
  <path d="M 815,894 803,897 812,897" fill="none" stroke="black" stroke-width="1" />
  <path d="M 863,891 849,896 846,894 850,893 846,893 845,896 840,896 828,904 830,906" fill="none" stroke="black" stroke-width="1" />
  <path d="M 876,886 874,887" fill="none" stroke="black" stroke-width="1" />
  <path d="M 872,887 866,891" fill="none" stroke="black" stroke-width="1" />
  <path d="M 878,885 873,885" fill="none" stroke="black" stroke-width="1" />
  <path d="M 852,881 817,895 832,893 837,889 840,891" fill="none" stroke="black" stroke-width="1" />
  <path d="M 914,858 901,864 891,873 888,871 890,872 879,883 910,864" fill="none" stroke="black" stroke-width="1" />
  <path d="M 922,852 918,856" fill="none" stroke="black" stroke-width="1" />
  <path d="M 904,848 875,869 893,861 896,857 893,856 897,853 899,857 898,854" fill="none" stroke="black" stroke-width="1" />
  <path d="M 928,847 924,850" fill="none" stroke="black" stroke-width="1" />
  <path d="M 929,844 931,846" fill="none" stroke="black" stroke-width="1" />
  <path d="M 822,824 833,830 832,827" fill="none" stroke="black" stroke-width="1" />
  <path d="M 849,819 855,821 856,824 849,821 858,827 856,824 860,825 860,833 859,829 856,835 849,836 856,838 861,831 860,825" fill="none" stroke="black" stroke-width="1" />
  <path d="M 843,817 846,820 847,818" fill="none" stroke="black" stroke-width="1" />
  <path d="M 798,814 805,818" fill="none" stroke="black" stroke-width="1" />
  <path d="M 793,812 795,814" fill="none" stroke="black" stroke-width="1" />
  <path d="M 829,811 840,817" fill="none" stroke="black" stroke-width="1" />
  <path d="M 787,809 789,811" fill="none" stroke="black" stroke-width="1" />
  <path d="M 808,804 812,805" fill="none" stroke="black" stroke-width="1" />
  <path d="M 775,803 777,805" fill="none" stroke="black" stroke-width="1" />
  <path d="M 804,801 806,803" fill="none" stroke="black" stroke-width="1" />
  <path d="M 769,800 772,803" fill="none" stroke="black" stroke-width="1" />
  <path d="M 748,778 755,790 758,790 754,783 757,779 752,781" fill="none" stroke="black" stroke-width="1" />
  <path d="M 761,772 759,778 765,776 766,780 763,772 764,776 759,778" fill="none" stroke="black" stroke-width="1" />
  <path d="M 746,772 748,774" fill="none" stroke="black" stroke-width="1" />
  <path d="M 793,769 795,784" fill="none" stroke="black" stroke-width="1" />
  <path d="M 793,762 795,765" fill="none" stroke="black" stroke-width="1" />
  <path d="M 794,757 796,759" fill="none" stroke="black" stroke-width="1" />
  <path d="M 756,752 758,754" fill="none" stroke="black" stroke-width="1" />
  <path d="M 743,751 746,768 746,755 742,754" fill="none" stroke="black" stroke-width="1" />
  <path d="M 783,748 778,768 783,759" fill="none" stroke="black" stroke-width="1" />
  <path d="M 756,747 758,749" fill="none" stroke="black" stroke-width="1" />
  <path d="M 798,744 800,746" fill="none" stroke="black" stroke-width="1" />
  <path d="M 782,744 784,746" fill="none" stroke="black" stroke-width="1" />
  <path d="M 742,744 743,746" fill="none" stroke="black" stroke-width="1" />
  <path d="M 804,735 801,738" fill="none" stroke="black" stroke-width="1" />
  <path d="M 757,734 759,736" fill="none" stroke="black" stroke-width="1" />
  <path d="M 807,732 805,733" fill="none" stroke="black" stroke-width="1" />
  <path d="M 810,729 801,742 799,738 800,742 811,732" fill="none" stroke="black" stroke-width="1" />
  <path d="M 758,726 760,729" fill="none" stroke="black" stroke-width="1" />
  <path d="M 845,719 889,720" fill="none" stroke="black" stroke-width="1" />
  <path d="M 802,718 786,737 792,732 799,731 798,725" fill="none" stroke="black" stroke-width="1" />
  <path d="M 839,718 837,719" fill="none" stroke="black" stroke-width="1" />
  <path d="M 822,716 823,722 833,720 823,722 825,718 833,718" fill="none" stroke="black" stroke-width="1" />
  <path d="M 761,716 759,718" fill="none" stroke="black" stroke-width="1" />
  <path d="M 877,715 882,718 891,717 883,718" fill="none" stroke="black" stroke-width="1" />
  <path d="M 747,673 749,675" fill="none" stroke="black" stroke-width="1" />
  <path d="M 749,668 747,671" fill="none" stroke="black" stroke-width="1" />
  <path d="M 905,666 905,686 905,667 916,680" fill="none" stroke="black" stroke-width="1" />
  <path d="M 627,654 623,656 622,663 646,696 655,723 655,746 651,765 625,827 625,832 629,836 637,836 654,804 665,774 671,729 667,706 658,685 636,656" fill="none" stroke="black" stroke-width="1" />
  <path d="M 1012,632 1006,632 1001,637 997,693 978,753 963,781 943,809 906,847 925,831 932,835 929,836 931,843 936,841 966,806 993,758 1005,725 1014,685 1016,637" fill="none" stroke="black" stroke-width="1" />
  <path d="M 477,635 477,665 481,694 500,757 515,786 536,816 575,856 613,883 664,906 719,918 763,919 705,916 648,900 598,873 548,829 515,785 502,761 488,724 477,665 477,636 486,632 492,637 497,694 515,752 538,794 575,836 623,871 678,894 729,903 778,902 776,905 780,906 783,914 792,913 790,916 765,918 767,914 761,911 762,908 758,909 755,905 740,905 740,917 746,914 765,918 805,914 794,915 781,910 780,903 792,902 785,901 795,899 769,903 729,903 678,894 624,871 584,843 543,800 520,762 500,708 494,675 492,636 487,632" fill="none" stroke="black" stroke-width="1" />
  <path d="M 923,630 925,633" fill="none" stroke="black" stroke-width="1" />
  <path d="M 923,622 922,627" fill="none" stroke="black" stroke-width="1" />
  <path d="M 926,617 923,620" fill="none" stroke="black" stroke-width="1" />
  <path d="M 927,604 925,606" fill="none" stroke="black" stroke-width="1" />
  <path d="M 753,601 755,603" fill="none" stroke="black" stroke-width="1" />
  <path d="M 942,598 944,600" fill="none" stroke="black" stroke-width="1" />
  <path d="M 742,591 732,602 730,616 737,632 745,635 749,632 746,611 752,604" fill="none" stroke="black" stroke-width="1" />
  <path d="M 749,588 748,592" fill="none" stroke="black" stroke-width="1" />
  <path d="M 755,584 757,586" fill="none" stroke="black" stroke-width="1" />
  <path d="M 796,577 792,580" fill="none" stroke="black" stroke-width="1" />
  <path d="M 794,576 788,579" fill="none" stroke="black" stroke-width="1" />
  <path d="M 801,570 797,574" fill="none" stroke="black" stroke-width="1" />
  <path d="M 779,569 778,573 775,572 759,582 768,589 760,599 790,581 787,583 786,579 777,574" fill="none" stroke="black" stroke-width="1" />
  <path d="M 919,562 921,564" fill="none" stroke="black" stroke-width="1" />
  <path d="M 795,556 781,568 787,566" fill="none" stroke="black" stroke-width="1" />
  <path d="M 904,530 906,534" fill="none" stroke="black" stroke-width="1" />
  <path d="M 816,530 819,538 826,538 820,538" fill="none" stroke="black" stroke-width="1" />
  <path d="M 829,536 822,542 820,550 816,554 813,552 816,555 805,568 808,560 802,548 814,529 797,553 799,555 803,550 808,562 804,568 820,551" fill="none" stroke="black" stroke-width="1" />
  <path d="M 831,527 833,529" fill="none" stroke="black" stroke-width="1" />
  <path d="M 818,524 817,527" fill="none" stroke="black" stroke-width="1" />
  <path d="M 835,521 833,523" fill="none" stroke="black" stroke-width="1" />
  <path d="M 849,463 851,465" fill="none" stroke="black" stroke-width="1" />
  <path d="M 826,462 825,464" fill="none" stroke="black" stroke-width="1" />
  <path d="M 909,443 908,446 912,446 913,450" fill="none" stroke="black" stroke-width="1" />
  <path d="M 880,397 881,399" fill="none" stroke="black" stroke-width="1" />
  <path d="M 888,394 890,396" fill="none" stroke="black" stroke-width="1" />
  <path d="M 603,403 582,426 568,447 551,487 545,517 545,553 551,583 565,617 577,628 581,626 583,615 571,591 562,557 561,527 566,494 574,471 594,437 615,414 644,392 678,375 713,365 748,361 799,364 839,375 869,392 888,411 895,430 889,412 893,408 888,410 885,407 887,401 880,401 844,377 799,364 748,361 713,365 670,378 643,392 614,414 594,436 575,468 566,494 561,527 562,557 571,591 583,615 581,625 576,628 568,621 557,600 547,567 547,504 555,475 571,443 593,414 623,387 657,367 695,353 727,347 775,346 809,350 846,361 875,377 895,396 904,408 911,427 899,428 896,437 900,442 893,441 906,443 911,439 922,469 923,502 916,536 917,551 927,570 947,595 947,603 937,613 932,615 929,612 918,612 917,609 911,612 930,597 909,569 911,566 908,567 902,551 902,528 908,526 907,521 903,525 908,495 903,457 910,464 914,461 914,455 912,462 911,454 905,450 904,445 900,445 906,449 903,457 901,453 896,453 902,451 886,450 894,432 882,447 860,457 831,458 783,449 747,447 707,453 663,471 638,489 610,522 596,554 592,590 596,611 609,643 614,648 623,647 625,639 610,602 609,568 620,537 647,503 684,478 719,466 770,463 824,472 770,463 725,465 688,476 653,497 629,522 617,542 611,559 608,579 610,602 625,639 622,647 615,648 609,642 600,623 593,598 592,575 599,545 610,523 624,504 653,478 679,463 715,451 747,447 783,449 831,458 854,458 870,454 890,440 886,451 895,452 896,455 871,470 853,473 854,469 860,470 857,469 857,459 823,461 820,470 825,460 856,460 857,470 843,472 841,481 836,483 832,478 828,481 827,475 826,496 818,522 827,504 831,505 836,514 831,504 826,504 821,514 829,480 833,483 841,482 841,474 844,474 837,518 844,474 871,470 889,462 899,453 902,455 908,484 907,507 901,534 902,551 908,568 930,598 910,612 910,635 902,650 905,658 902,666 903,686 902,666 906,664 903,646 911,632 919,646 916,697 912,696 915,683 912,702 905,710 897,701 901,696 899,698 899,694 903,693 901,688 897,698 890,703 833,703 816,708 810,713 821,713 821,707 824,705 827,706 824,708 843,705 861,713 854,717 844,717 860,717 861,712 833,703 886,704 898,697 896,702 906,711 896,717 896,714 877,710 895,714 894,718 906,712 916,697 920,663 919,645 911,631 911,616 916,609 918,612 928,612 928,617 938,613 945,607 947,595 917,551 916,536 923,502 922,469 913,440 902,443 896,437 896,432 900,428 910,429 911,424 904,407 895,395 870,373 829,355 789,347 739,346 699,352 668,362 634,379" fill="none" stroke="black" stroke-width="1" />
</svg>
